<svg fill="none" xmlns="http://www.w3.org/2000/svg" viewBox="0 0 82 16"><path d="M0.167969 0.859375H6.23242C7.2806 0.859375 8.17253 1.00586 8.9082 1.29883C9.65039 1.58529 10.207 1.99219 10.5781 2.51953C10.9557 3.04688 11.1445 3.67513 11.1445 4.4043C11.1445 4.91862 11.0306 5.39062 10.8027 5.82031C10.5749 6.24349 10.2559 6.60156 9.8457 6.89453C9.44206 7.18099 8.97005 7.37956 8.42969 7.49023V7.62695C9.03516 7.65299 9.58529 7.80924 10.0801 8.0957C10.5814 8.38216 10.9753 8.77604 11.2617 9.27734C11.5482 9.77865 11.6914 10.3548 11.6914 11.0059C11.6914 11.7741 11.4896 12.4609 11.0859 13.0664C10.6888 13.6654 10.1159 14.1374 9.36719 14.4824C8.625 14.8275 7.74935 15 6.74023 15H0.167969V0.859375ZM5.76367 12.0215C6.20638 12.0215 6.57422 11.9629 6.86719 11.8457C7.16667 11.7285 7.38802 11.5592 7.53125 11.3379C7.68099 11.1165 7.75586 10.8464 7.75586 10.5273C7.75586 10.1953 7.67773 9.90885 7.52148 9.66797C7.37174 9.42057 7.15039 9.23503 6.85742 9.11133C6.57096 8.98763 6.22591 8.92578 5.82227 8.92578H3.87891V12.0215H5.76367ZM5.54883 6.61133C5.89388 6.61133 6.19987 6.55273 6.4668 6.43555C6.74023 6.31836 6.95182 6.1556 7.10156 5.94727C7.2513 5.73242 7.32617 5.47852 7.32617 5.18555C7.32617 4.88607 7.2513 4.63216 7.10156 4.42383C6.95833 4.21549 6.75651 4.05924 6.49609 3.95508C6.24219 3.8444 5.94596 3.78906 5.60742 3.78906H3.87891V6.61133H5.54883ZM26.7109 7.92969C26.7109 9.44661 26.4115 10.7552 25.8125 11.8555C25.2201 12.9492 24.403 13.7793 23.3613 14.3457C22.3262 14.9121 21.1608 15.1953 19.8652 15.1953C18.5697 15.1953 17.4043 14.9121 16.3691 14.3457C15.334 13.7793 14.5169 12.946 13.918 11.8457C13.3255 10.7454 13.0293 9.4401 13.0293 7.92969C13.0293 6.39974 13.3255 5.08789 13.918 3.99414C14.5169 2.90039 15.334 2.07357 16.3691 1.51367C17.4043 0.947266 18.5697 0.664062 19.8652 0.664062C21.1608 0.664062 22.3262 0.947266 23.3613 1.51367C24.403 2.07357 25.2201 2.90039 25.8125 3.99414C26.4115 5.08789 26.7109 6.39974 26.7109 7.92969ZM22.8926 7.92969C22.8926 7.0638 22.7754 6.33138 22.541 5.73242C22.3132 5.13346 21.9714 4.68099 21.5156 4.375C21.0664 4.0625 20.5163 3.90625 19.8652 3.90625C19.2142 3.90625 18.6641 4.0625 18.2148 4.375C17.7656 4.68099 17.4238 5.13346 17.1895 5.73242C16.9616 6.33138 16.8477 7.0638 16.8477 7.92969C16.8477 8.79557 16.9616 9.52799 17.1895 10.127C17.4238 10.7259 17.7656 11.1816 18.2148 11.4941C18.6641 11.8001 19.2142 11.9531 19.8652 11.9531C20.5163 11.9531 21.0664 11.8001 21.5156 11.4941C21.9714 11.1816 22.3132 10.7259 22.541 10.127C22.7754 9.52799 22.8926 8.79557 22.8926 7.92969ZM42.1211 7.92969C42.1211 9.44661 41.8216 10.7552 41.2227 11.8555C40.6302 12.9492 39.8132 13.7793 38.7715 14.3457C37.7363 14.9121 36.571 15.1953 35.2754 15.1953C33.9798 15.1953 32.8145 14.9121 31.7793 14.3457C30.7441 13.7793 29.9271 12.946 29.3281 11.8457C28.7357 10.7454 28.4395 9.4401 28.4395 7.92969C28.4395 6.39974 28.7357 5.08789 29.3281 3.99414C29.9271 2.90039 30.7441 2.07357 31.7793 1.51367C32.8145 0.947266 33.9798 0.664062 35.2754 0.664062C36.571 0.664062 37.7363 0.947266 38.7715 1.51367C39.8132 2.07357 40.6302 2.90039 41.2227 3.99414C41.8216 5.08789 42.1211 6.39974 42.1211 7.92969ZM38.3027 7.92969C38.3027 7.0638 38.1855 6.33138 37.9512 5.73242C37.7233 5.13346 37.3815 4.68099 36.9258 4.375C36.4766 4.0625 35.9264 3.90625 35.2754 3.90625C34.6243 3.90625 34.0742 4.0625 33.625 4.375C33.1758 4.68099 32.834 5.13346 32.5996 5.73242C32.3717 6.33138 32.2578 7.0638 32.2578 7.92969C32.2578 8.79557 32.3717 9.52799 32.5996 10.127C32.834 10.7259 33.1758 11.1816 33.625 11.4941C34.0742 11.8001 34.6243 11.9531 35.2754 11.9531C35.9264 11.9531 36.4766 11.8001 36.9258 11.4941C37.3815 11.1816 37.7233 10.7259 37.9512 10.127C38.1855 9.52799 38.3027 8.79557 38.3027 7.92969ZM43.9375 0.859375H47.6484V6.65039H47.8438L52.209 0.859375H56.5645L51.7109 7.1582L56.6719 15H52.2188L48.9473 9.61914L47.6484 11.2988V15H43.9375V0.859375ZM57.7461 0.859375H67.8438V3.85742H61.457V6.42578H67.3262V9.42383H61.457V12.002H67.8145V15H57.7461V0.859375ZM69.7969 0.859375H75.8125C76.8672 0.859375 77.7852 1.05143 78.5664 1.43555C79.3542 1.81966 79.9629 2.37305 80.3926 3.0957C80.8288 3.81185 81.0469 4.6582 81.0469 5.63477C81.0469 6.61784 80.8255 7.46094 80.3828 8.16406C79.9466 8.86068 79.3249 9.38802 78.5176 9.74609C77.7103 10.1042 76.7663 10.2832 75.6855 10.2832H72.0234V7.37305H74.9629C75.4512 7.37305 75.8548 7.31445 76.1738 7.19727C76.4928 7.07357 76.737 6.88477 76.9062 6.63086C77.082 6.37044 77.1699 6.03841 77.1699 5.63477C77.1699 5.22461 77.082 4.88932 76.9062 4.62891C76.737 4.36198 76.4896 4.16341 76.1641 4.0332C75.8385 3.90299 75.4382 3.83789 74.9629 3.83789H73.5078V15H69.7969V0.859375ZM81.5156 15H77.4629L74.0254 8.52539H77.9902L81.5156 15Z" fill="#FFC400"/></svg>