<svg width="140" height="140" viewBox="0 0 140 140" fill="none" xmlns="http://www.w3.org/2000/svg">
<g clip-path="url(#clip0_57_423)">
<path d="M68.0167 103.425L71.05 97.5917C71.2953 97.1553 71.4241 96.6631 71.4241 96.1625C71.4241 95.6619 71.2953 95.1697 71.05 94.7333C70.7883 94.3034 70.4197 93.9485 69.9801 93.7031C69.5406 93.4578 69.045 93.3304 68.5417 93.3333H61.25C60.4765 93.3333 59.7346 93.026 59.1876 92.4791C58.6406 91.9321 58.3333 91.1902 58.3333 90.4167V87.5C58.3333 86.7265 58.6406 85.9846 59.1876 85.4376C59.7346 84.8906 60.4765 84.5833 61.25 84.5833H76.125C76.6655 84.5898 77.1972 84.446 77.6607 84.1679C78.1243 83.8898 78.5014 83.4883 78.75 83.0083L85.9833 69.2417C86.0963 69.0152 86.1551 68.7656 86.1551 68.5125C86.1551 68.2594 86.0963 68.0098 85.9833 67.7833C85.8476 67.5794 85.6663 67.41 85.4536 67.2885C85.2409 67.167 85.0029 67.0967 84.7583 67.0833H14.5833C13.8098 67.0833 13.0679 66.776 12.5209 66.2291C11.974 65.6821 11.6667 64.9402 11.6667 64.1667V14.5833C11.6667 13.8098 11.974 13.0679 12.5209 12.5209C13.0679 11.974 13.8098 11.6667 14.5833 11.6667H90.4167C91.1902 11.6667 91.9321 11.974 92.4791 12.5209C93.026 13.0679 93.3333 13.8098 93.3333 14.5833V56.2917C93.3378 56.7437 93.4451 57.1887 93.6473 57.593C93.8494 57.9973 94.1411 58.3503 94.5 58.625C94.8731 58.8976 95.3035 59.0813 95.7585 59.1622C96.2134 59.2431 96.6808 59.219 97.125 59.0917C98.7267 58.5756 100.401 58.3196 102.083 58.3333C102.852 58.3184 103.585 58.0063 104.129 57.4625C104.673 56.9188 104.985 56.1855 105 55.4167V11.6667C105 8.57247 103.771 5.60501 101.583 3.41709C99.395 1.22916 96.4275 0 93.3333 0L11.6667 0C8.57247 0 5.60501 1.22916 3.41709 3.41709C1.22916 5.60501 0 8.57247 0 11.6667L0 72.9167C0 76.0109 1.22916 78.9783 3.41709 81.1662C5.60501 83.3542 8.57247 84.5833 11.6667 84.5833H43.75C44.5235 84.5833 45.2654 84.8906 45.8124 85.4376C46.3594 85.9846 46.6667 86.7265 46.6667 87.5V90.4167C46.6667 91.1902 46.3594 91.9321 45.8124 92.4791C45.2654 93.026 44.5235 93.3333 43.75 93.3333H29.1667C27.6196 93.3333 26.1358 93.9479 25.0419 95.0419C23.9479 96.1358 23.3333 97.6196 23.3333 99.1667C23.3333 100.714 23.9479 102.198 25.0419 103.291C26.1358 104.385 27.6196 105 29.1667 105H65.45C65.9806 104.996 66.5 104.847 66.9523 104.569C67.4046 104.292 67.7726 103.896 68.0167 103.425Z" fill="#D0D0D0"/>
<path d="M139.067 127.808L109.55 71.575C108.829 70.2206 107.753 69.0878 106.438 68.2979C105.123 67.5079 103.618 67.0906 102.083 67.0906C100.549 67.0906 99.0437 67.5079 97.7284 68.2979C96.4131 69.0878 95.3374 70.2206 94.6166 71.575L65.0999 127.808C64.4358 129.085 64.1131 130.511 64.1633 131.949C64.2135 133.388 64.6348 134.788 65.3863 136.015C66.1378 137.242 67.194 138.254 68.4521 138.952C69.7103 139.651 71.1277 140.012 72.5666 140H131.6C133.04 139.995 134.454 139.623 135.71 138.919C136.965 138.214 138.02 137.201 138.775 135.975C139.52 134.753 139.938 133.36 139.989 131.93C140.04 130.5 139.723 129.08 139.067 127.808ZM102.083 129.792C100.93 129.792 99.8017 129.45 98.8425 128.809C97.8832 128.168 97.1355 127.257 96.694 126.191C96.2525 125.125 96.137 123.952 96.362 122.82C96.5871 121.689 97.1427 120.649 97.9585 119.834C98.7743 119.018 99.8137 118.462 100.945 118.237C102.077 118.012 103.25 118.128 104.316 118.569C105.382 119.011 106.293 119.758 106.934 120.718C107.575 121.677 107.917 122.805 107.917 123.958C107.917 125.505 107.302 126.989 106.208 128.083C105.114 129.177 103.63 129.792 102.083 129.792ZM107.917 109.375C107.917 110.535 107.456 111.648 106.635 112.469C105.815 113.289 104.702 113.75 103.542 113.75C102.381 113.75 101.268 113.289 100.448 112.469C99.6275 111.648 99.1666 110.535 99.1666 109.375V91.875C99.1666 90.7147 99.6275 89.6019 100.448 88.7814C101.268 87.9609 102.381 87.5 103.542 87.5C104.702 87.5 105.815 87.9609 106.635 88.7814C107.456 89.6019 107.917 90.7147 107.917 91.875V109.375Z" fill="#D0D0D0"/>
<path d="M42 52.1423C45.2659 49.3371 49.1501 47.8333 53.1298 47.8333C57.1094 47.8333 60.9936 49.3371 64.2595 52.1423" stroke="#D0D0D0" stroke-width="4" stroke-linecap="round" stroke-linejoin="round"/>
</g>
<defs>
<clipPath id="clip0_57_423">
<rect width="140" height="140" fill="white"/>
</clipPath>
</defs>
</svg>
