<svg fill="none" xmlns="http://www.w3.org/2000/svg" viewBox="0 0 100 100"><path d="M91.4615 29.2725H74.9335C75.1172 29.117 75.3057 28.9663 75.4847 28.8014C78.3774 26.2314 80.0692 22.573 80.1538 18.7045C80.4152 9.86516 73.1814 2.62922 64.3419 2.88789C60.4718 2.97125 56.8114 4.66316 54.2404 7.55703C52.4805 9.59664 51.0498 11.8984 50 14.3793C48.9502 11.8984 47.5195 9.59664 45.7596 7.55703C43.1886 4.66316 39.5282 2.97125 35.6581 2.88789C26.8186 2.62922 19.5848 9.86516 19.8462 18.7045C19.9308 22.573 21.6226 26.2314 24.5153 28.8014C24.6943 28.9568 24.8828 29.1076 25.0665 29.2725H8.53848C4.37508 29.2725 1 32.6476 1 36.811V51.8879C1 56.0513 4.37508 59.4264 8.53848 59.4264V89.5802C8.53848 93.7437 11.9134 97.1189 16.0769 97.1187H83.9231C88.0866 97.1189 91.4615 93.7437 91.4615 89.5802V59.4264C95.6249 59.4264 99 56.0513 99 51.8879V36.811C99 32.6477 95.6248 29.2727 91.4615 29.2725ZM59.8942 12.5513C61.1007 11.2189 62.8084 10.4505 64.6058 10.4311H64.8366C69.2252 10.4585 72.7343 14.0867 72.6154 18.4737C72.596 20.271 71.8275 21.9787 70.4952 23.1852C66.0239 27.1429 58.6033 28.5375 54.0048 29.0275C54.5702 24.038 56.125 16.787 59.8942 12.5513ZM29.698 12.7209C31.1583 11.2607 33.136 10.4361 35.2011 10.4264H35.4319C37.2293 10.4457 38.937 11.2142 40.1435 12.5466C44.0964 17.0131 45.4911 24.4196 45.9811 28.9993C41.4014 28.5281 33.9949 27.1146 29.5284 23.1616C28.1961 21.9552 27.4276 20.2474 27.4082 18.4501C27.3491 16.31 28.1699 14.2393 29.6791 12.7209H29.698ZM8.53848 36.811H46.2308V51.8879H8.53848V36.811ZM16.0769 59.4264H46.2308V89.5802H16.0769V59.4264ZM83.9231 89.5802H53.7692V59.4264H83.9231V89.5802ZM91.4615 51.8879H53.7692V36.811H91.4615V51.8879Z" fill="#B3B3B3"/></svg>