<svg width="123" height="151" viewBox="0 0 123 151" fill="none" xmlns="http://www.w3.org/2000/svg">
<path d="M45.1191 98.8125V90.9375M77.0703 90.9375V98.8125M101.094 145.625H21.0156C16.768 145.625 12.6944 143.979 9.69087 141.049C6.68736 138.118 5 134.144 5 130V20.625C5 16.481 6.68736 12.5067 9.69087 9.57646C12.6944 6.6462 16.768 5 21.0156 5H77.0703L117.109 44.0625V130C117.109 134.144 115.422 138.118 112.419 141.049C109.415 143.979 105.341 145.625 101.094 145.625Z" stroke="#D0D0D0" stroke-width="8" stroke-linecap="round" stroke-linejoin="round"/>
<path d="M70.5945 22.3584V45.8936C70.5945 47.454 71.097 48.9506 71.9916 50.054C72.8861 51.1574 74.0993 51.7773 75.3644 51.7773H94.444" stroke="#D0D0D0" stroke-width="8" stroke-linecap="round" stroke-linejoin="round"/>
<path d="M51.5149 110.615C54.3143 108.211 57.6435 106.922 61.0547 106.922C64.4658 106.922 67.7951 108.211 70.5945 110.615" stroke="#D0D0D0" stroke-width="4" stroke-linecap="round" stroke-linejoin="round"/>
</svg>
