<svg width="6" height="8" viewBox="0 0 6 8" fill="none" xmlns="http://www.w3.org/2000/svg">
<path d="M0.158936 7.08824V0.911765C0.158936 0.783651 0.200112 0.683016 0.282465 0.609804C0.364818 0.536592 0.460896 0.5 0.5707 0.5C0.607292 0.5 0.643912 0.504584 0.680505 0.513726C0.717097 0.522867 0.753716 0.536592 0.790308 0.554902L5.64913 3.65686C5.71318 3.70262 5.76121 3.75294 5.79325 3.80784C5.82528 3.86275 5.84129 3.92679 5.84129 4C5.84129 4.07321 5.82528 4.13726 5.79325 4.19216C5.76121 4.24706 5.71318 4.29738 5.64913 4.34314L0.790308 7.4451C0.753716 7.46341 0.717097 7.47713 0.680505 7.48628C0.643912 7.49542 0.607292 7.5 0.5707 7.5C0.460896 7.5 0.364818 7.46341 0.282465 7.3902C0.200112 7.31699 0.158936 7.21635 0.158936 7.08824Z" fill="white"/>
</svg>
