<svg fill="none" xmlns="http://www.w3.org/2000/svg" viewBox="0 0 18 19"><path d="M15.9667 18.5L10.1917 12.2C9.73333 12.6 9.20625 12.9167 8.61042 13.15C8.01458 13.3833 7.38056 13.5 6.70833 13.5C5.04306 13.5 3.63368 12.8708 2.48021 11.6125C1.32674 10.3542 0.75 8.81667 0.75 7C0.75 5.18333 1.32674 3.64583 2.48021 2.3875C3.63368 1.12917 5.04306 0.5 6.70833 0.5C8.37361 0.5 9.78299 1.12917 10.9365 2.3875C12.0899 3.64583 12.6667 5.18333 12.6667 7C12.6667 7.73333 12.5597 8.425 12.3458 9.075C12.1319 9.725 11.8417 10.3 11.475 10.8L17.25 17.1L15.9667 18.5ZM6.70833 11.5C7.85417 11.5 8.82812 11.0625 9.63021 10.1875C10.4323 9.3125 10.8333 8.25 10.8333 7C10.8333 5.75 10.4323 4.6875 9.63021 3.8125C8.82812 2.9375 7.85417 2.5 6.70833 2.5C5.5625 2.5 4.58854 2.9375 3.78646 3.8125C2.98438 4.6875 2.58333 5.75 2.58333 7C2.58333 8.25 2.98438 9.3125 3.78646 10.1875C4.58854 11.0625 5.5625 11.5 6.70833 11.5Z" fill="#797979"/></svg>