<svg width="22" height="22" viewBox="0 0 22 22" fill="none" xmlns="http://www.w3.org/2000/svg">
<path d="M12.3699 2.4482C12.2407 2.21289 12.0445 2.01541 11.8028 1.87752C11.5611 1.73962 11.2833 1.66666 11 1.66666C10.7167 1.66666 10.4389 1.73962 10.1972 1.87752C9.95554 2.01541 9.7593 2.21289 9.63014 2.4482L1.16465 18.2503C1.04658 18.469 0.990368 18.7122 1.00135 18.957C1.01233 19.2016 1.09014 19.4395 1.22739 19.6482C1.36465 19.857 1.55678 20.0295 1.78556 20.1493C2.01433 20.2693 2.27214 20.3326 2.53453 20.3333H19.4655C19.7279 20.3326 19.9857 20.2693 20.2144 20.1493C20.4433 20.0295 20.6354 19.857 20.7727 19.6482C20.9098 19.4395 20.9877 19.2016 20.9986 18.957C21.0097 18.7122 20.9534 18.469 20.8353 18.2503L12.3699 2.4482Z" stroke="white" stroke-width="2" stroke-linecap="round" stroke-linejoin="round"/>
<path d="M11 8.12274V12.7915" stroke="white" stroke-width="2" stroke-linecap="round" stroke-linejoin="round"/>
<path d="M10.9999 16.7421C10.7874 16.7421 10.6151 16.5813 10.6151 16.3829C10.6151 16.1846 10.7874 16.0238 10.9999 16.0238" stroke="white" stroke-width="2" stroke-linecap="round" stroke-linejoin="round"/>
<path d="M11 16.7421C11.2125 16.7421 11.3848 16.5814 11.3848 16.383C11.3848 16.1846 11.2125 16.0238 11 16.0238" stroke="white" stroke-width="2" stroke-linecap="round" stroke-linejoin="round"/>
</svg>
