<svg width="26" height="26" viewBox="0 0 26 26" fill="none" xmlns="http://www.w3.org/2000/svg">
<path fill-rule="evenodd" clip-rule="evenodd" d="M1.19567 0.0454196C0.403186 0.202236 -0.134846 1.01521 0.02965 1.80736C0.060562 1.9564 0.139666 2.16592 0.205378 2.27291C0.27109 2.3799 2.63922 4.78403 5.46791 7.61545L10.611 12.7635L5.46791 17.9115C2.63922 20.7428 0.27109 23.147 0.205378 23.254C-0.227678 23.9591 0.0615693 24.9629 0.807969 25.3455C1.24381 25.5689 1.85413 25.5528 2.2532 25.3072C2.36207 25.2402 4.76783 22.8711 7.59925 20.0426L12.7474 14.8998L17.8953 20.0428C20.7266 22.8714 23.1322 25.2405 23.2411 25.3074C23.35 25.3743 23.5673 25.4523 23.7241 25.4807C24.7637 25.6693 25.653 24.78 25.4644 23.7404C25.436 23.5836 25.358 23.3663 25.2911 23.2574C25.2242 23.1485 22.8551 20.7429 20.0265 17.9115L14.8835 12.7637L20.0263 7.61555C22.8549 4.78412 25.2239 2.37836 25.2909 2.2695C25.5365 1.87043 25.5526 1.26011 25.3293 0.824267C24.9466 0.0778673 23.9428 -0.21138 23.2377 0.221676C23.1307 0.287388 20.7265 2.65552 17.8952 5.4842L12.7472 10.6273L7.59915 5.4842C4.76773 2.65552 2.36432 0.287819 2.25815 0.222635C2.07416 0.109643 1.65104 -0.0105006 1.4768 0.000731416C1.43187 0.00361142 1.30539 0.0237236 1.19567 0.0454196Z" fill="white"/>
</svg>
