<svg width="30" height="31" viewBox="0 0 30 31" fill="none" xmlns="http://www.w3.org/2000/svg">
<path d="M19.6154 5.34613V10.8846H25.1539C25.6435 10.8846 26.1131 11.0791 26.4593 11.4253C26.8055 11.7716 27 12.2411 27 12.7308V25.6539C27 26.1435 26.8055 26.6131 26.4593 26.9593C26.1131 27.3054 25.6435 27.5 25.1539 27.5H12.2308C11.7411 27.5 11.2716 27.3054 10.9253 26.9593C10.5791 26.6131 10.3846 26.1435 10.3846 25.6539V20.1154H4.84616C4.35652 20.1154 3.88695 19.9209 3.54073 19.5747C3.19451 19.2284 3 18.7589 3 18.2692V5.34613C3 4.8565 3.19451 4.38693 3.54073 4.0407C3.88695 3.69448 4.35652 3.49998 4.84616 3.49998H17.7693C18.2589 3.49998 18.7285 3.69448 19.0747 4.0407C19.4209 4.38693 19.6154 4.8565 19.6154 5.34613Z" fill="#FFFDF7" stroke="#FFC400" stroke-width="2" stroke-linecap="round" stroke-linejoin="round"/>
<g clip-path="url(#clip0_14_14)">
<path d="M19.9213 23.799C21.1043 24.5918 22.6261 24.5868 23.5418 23.7152C24.4575 22.8435 24.4623 21.3938 23.6298 20.2671C22.7056 21.7081 21.4344 22.9188 19.9213 23.799Z" stroke="#FFC400" stroke-width="0.8" stroke-linecap="round" stroke-linejoin="round"/>
<path d="M17.4929 21.3069H19.5113L18.2498 22.5079" stroke="#FFC400" stroke-width="0.8" stroke-linecap="round" stroke-linejoin="round"/>
<path d="M21.0249 17.943V19.8653L22.286 18.6638" stroke="#FFC400" stroke-width="0.8" stroke-linecap="round" stroke-linejoin="round"/>
<path d="M23.6536 16.881C22.6361 16.3308 21.457 16.1137 20.2975 16.2631C19.1379 16.4126 18.0619 16.9203 17.2345 17.7083C16.4071 18.4963 15.874 19.5211 15.7171 20.6254C15.5602 21.7297 15.7881 22.8526 16.3659 23.8217" stroke="#FFC400" stroke-width="0.8" stroke-linecap="round" stroke-linejoin="round"/>
</g>
<mask id="path-6-outside-1_14_14" maskUnits="userSpaceOnUse" x="6" y="6.50001" width="8" height="10" fill="black">
<rect fill="white" x="6" y="6.50001" width="8" height="10"/>
<path d="M7.41699 8.4297H10.2295C10.734 8.4297 11.1621 8.50619 11.5137 8.65919C11.8652 8.80893 12.1289 9.02052 12.3047 9.29395C12.4837 9.56414 12.5732 9.88152 12.5732 10.2461C12.5732 10.513 12.5179 10.7507 12.4072 10.959C12.2998 11.1673 12.1501 11.3399 11.958 11.4766C11.7692 11.61 11.5495 11.7044 11.2988 11.7598V11.8281C11.569 11.8412 11.8229 11.9193 12.0605 12.0625C12.2982 12.2057 12.4886 12.4059 12.6318 12.6631C12.7751 12.917 12.8467 13.2132 12.8467 13.5518C12.8467 13.9294 12.7539 14.2647 12.5684 14.5576C12.3828 14.8506 12.1061 15.0817 11.7383 15.251C11.3737 15.417 10.9326 15.5 10.415 15.5H7.41699V8.4297ZM10.1172 14.294C10.3939 14.294 10.6217 14.2581 10.8008 14.1865C10.9831 14.1117 11.1165 14.0091 11.2012 13.8789C11.2858 13.7455 11.3281 13.5876 11.3281 13.4053C11.3281 13.21 11.2809 13.0342 11.1865 12.8779C11.0921 12.7217 10.9554 12.6029 10.7764 12.5215C10.6006 12.4369 10.3939 12.3945 10.1562 12.3945H8.88184V14.294H10.1172ZM10.0098 11.3936C10.2148 11.3936 10.3988 11.3561 10.5615 11.2813C10.7275 11.2064 10.8561 11.1006 10.9473 10.9639C11.0417 10.8272 11.0889 10.666 11.0889 10.4805C11.0889 10.3047 11.0482 10.1533 10.9668 10.0264C10.8854 9.89617 10.765 9.79688 10.6055 9.72852C10.4492 9.65691 10.2604 9.6211 10.0391 9.6211H8.88184V11.3936H10.0098Z"/>
</mask>
<path d="M7.41699 8.4297V7.4297H6.41699V8.4297H7.41699ZM11.5137 8.65919L11.1146 9.57615L11.1218 9.57921L11.5137 8.65919ZM12.3047 9.29395L11.4634 9.83476L11.4711 9.84633L12.3047 9.29395ZM12.4072 10.959L11.524 10.4898L11.5184 10.5007L12.4072 10.959ZM11.958 11.4766L12.5352 12.2932L12.5379 12.2912L11.958 11.4766ZM11.2988 11.7598L11.0832 10.7833L10.2988 10.9565V11.7598H11.2988ZM11.2988 11.8281H10.2988V12.7811L11.2507 12.827L11.2988 11.8281ZM12.6318 12.6631L11.7582 13.1497L11.7609 13.1544L12.6318 12.6631ZM11.7383 15.251L12.1527 16.1611L12.1563 16.1594L11.7383 15.251ZM7.41699 15.5H6.41699V16.5H7.41699V15.5ZM10.8008 14.1865L11.1722 15.115L11.1807 15.1116L10.8008 14.1865ZM11.2012 13.8789L12.0397 14.4239L12.0457 14.4145L11.2012 13.8789ZM10.7764 12.5215L10.3426 13.4225L10.3525 13.4273L10.3626 13.4319L10.7764 12.5215ZM8.88184 12.3945V11.3945H7.88184V12.3945H8.88184ZM8.88184 14.294H7.88184V15.294H8.88184V14.294ZM10.5615 11.2813L10.1504 10.3696L10.1436 10.3728L10.5615 11.2813ZM10.9473 10.9639L10.1244 10.3957L10.1197 10.4024L10.1152 10.4092L10.9473 10.9639ZM10.9668 10.0264L10.1187 10.5564L10.1249 10.566L10.9668 10.0264ZM10.6055 9.72852L10.1888 10.6376L10.2001 10.6428L10.2115 10.6477L10.6055 9.72852ZM8.88184 9.6211V8.6211H7.88184V9.6211H8.88184ZM8.88184 11.3936H7.88184V12.3936H8.88184V11.3936ZM7.41699 9.4297H10.2295V7.4297H7.41699V9.4297ZM10.2295 9.4297C10.638 9.4297 10.922 9.49229 11.1146 9.57612L11.9127 7.74225C11.4022 7.52009 10.8301 7.4297 10.2295 7.4297V9.4297ZM11.1218 9.57921C11.3221 9.66452 11.4141 9.7578 11.4635 9.83471L13.1459 8.7532C12.8437 8.28323 12.4084 7.95333 11.9055 7.73916L11.1218 9.57921ZM11.4711 9.84633C11.5284 9.93279 11.5732 10.0526 11.5732 10.2461H13.5732C13.5732 9.71041 13.4391 9.19548 13.1383 8.74157L11.4711 9.84633ZM11.5732 10.2461C11.5732 10.3712 11.5484 10.444 11.5241 10.4898L13.2903 11.4281C13.4874 11.0573 13.5732 10.6549 13.5732 10.2461H11.5732ZM11.5184 10.5007C11.4845 10.5665 11.441 10.6171 11.3781 10.6619L12.5379 12.2912C12.8591 12.0626 13.1151 11.7682 13.296 11.4173L11.5184 10.5007ZM11.3808 10.66C11.3121 10.7086 11.2183 10.7535 11.0832 10.7833L11.5144 12.7363C11.8807 12.6554 12.2263 12.5115 12.5352 12.2931L11.3808 10.66ZM10.2988 11.7598V11.8281H12.2988V11.7598H10.2988ZM11.2507 12.827C11.3511 12.8318 11.4447 12.8589 11.5443 12.919L12.5768 11.2061C12.2011 10.9796 11.7869 10.8505 11.347 10.8293L11.2507 12.827ZM11.5443 12.919C11.6234 12.9667 11.6945 13.0352 11.7582 13.1497L13.5055 12.1765C13.2827 11.7766 12.9729 11.4448 12.5768 11.2061L11.5443 12.919ZM11.7609 13.1544C11.8067 13.2357 11.8467 13.3574 11.8467 13.5518H13.8467C13.8467 13.0691 13.7434 12.5983 13.5028 12.1718L11.7609 13.1544ZM11.8467 13.5518C11.8467 13.7574 11.7988 13.9038 11.7235 14.0226L13.4132 15.0927C13.7091 14.6255 13.8467 14.1013 13.8467 13.5518H11.8467ZM11.7235 14.0226C11.6576 14.1267 11.5428 14.2402 11.3202 14.3426L12.1563 16.1594C12.6695 15.9233 13.108 15.5745 13.4132 15.0927L11.7235 14.0226ZM11.3239 14.3409C11.1215 14.433 10.8297 14.5 10.415 14.5V16.5C11.0355 16.5 11.6259 16.401 12.1527 16.1611L11.3239 14.3409ZM10.415 14.5H7.41699V16.5H10.415V14.5ZM8.41699 15.5V8.4297H6.41699V15.5H8.41699ZM10.1172 15.294C10.4703 15.294 10.8355 15.2497 11.1722 15.115L10.4294 13.2581C10.4079 13.2666 10.3175 13.294 10.1172 13.294V15.294ZM11.1807 15.1116C11.5003 14.9803 11.8178 14.7651 12.0396 14.4239L10.3627 13.3339C10.3872 13.2963 10.4127 13.2725 10.4284 13.2605C10.4426 13.2495 10.4436 13.2522 10.4209 13.2615L11.1807 15.1116ZM12.0457 14.4145C12.2467 14.0974 12.3281 13.7475 12.3281 13.4053H10.3281C10.3281 13.4189 10.3266 13.4161 10.3305 13.4015C10.3346 13.386 10.3429 13.3651 10.3567 13.3434L12.0457 14.4145ZM12.3281 13.4053C12.3281 13.0409 12.2377 12.684 12.0424 12.3608L10.3306 13.3951C10.3303 13.3945 10.3295 13.3931 10.3286 13.3911C10.3278 13.389 10.3272 13.3873 10.3269 13.3863C10.3267 13.3853 10.3269 13.3859 10.3273 13.3886C10.3276 13.3914 10.3281 13.3968 10.3281 13.4053H12.3281ZM12.0424 12.3608C11.8355 12.0184 11.538 11.7692 11.1902 11.6111L10.3626 13.4319C10.3718 13.436 10.3676 13.4355 10.3572 13.4264C10.3463 13.417 10.3368 13.4054 10.3306 13.3951L12.0424 12.3608ZM11.2102 11.6205C10.8728 11.458 10.5119 11.3945 10.1562 11.3945V13.3945C10.2759 13.3945 10.3284 13.4157 10.3426 13.4225L11.2102 11.6205ZM10.1562 11.3945H8.88184V13.3945H10.1562V11.3945ZM7.88184 12.3945V14.294H9.88184V12.3945H7.88184ZM8.88184 15.294H10.1172V13.294H8.88184V15.294ZM10.0098 12.3936C10.3383 12.3936 10.6679 12.3331 10.9794 12.1897L10.1436 10.3728C10.1296 10.3792 10.0914 10.3936 10.0098 10.3936V12.3936ZM10.9726 12.1928C11.2905 12.0495 11.5731 11.828 11.7793 11.5186L10.1152 10.4092C10.1249 10.3947 10.1365 10.3823 10.1471 10.3735C10.1571 10.3653 10.1603 10.3652 10.1504 10.3697L10.9726 12.1928ZM11.7702 11.5321C11.9932 11.2091 12.0889 10.8443 12.0889 10.4805H10.0889C10.0889 10.488 10.088 10.4791 10.0938 10.4594C10.0999 10.4387 10.1103 10.416 10.1244 10.3957L11.7702 11.5321ZM12.0889 10.4805C12.0889 10.1457 12.0095 9.79993 11.8087 9.48671L10.1249 10.566C10.108 10.5397 10.0979 10.5143 10.0926 10.4947C10.0877 10.4762 10.0889 10.4698 10.0889 10.4805H12.0889ZM11.8148 9.49638C11.6115 9.17118 11.3211 8.94724 10.9994 8.80938L10.2115 10.6477C10.2136 10.6486 10.2001 10.643 10.1794 10.6259C10.1578 10.6081 10.1362 10.5842 10.1188 10.5564L11.8148 9.49638ZM11.0221 8.81946C10.7032 8.6733 10.3644 8.6211 10.0391 8.6211V10.6211C10.1564 10.6211 10.1952 10.6405 10.1888 10.6376L11.0221 8.81946ZM10.0391 8.6211H8.88184V10.6211H10.0391V8.6211ZM7.88184 9.6211V11.3936H9.88184V9.6211H7.88184ZM8.88184 12.3936H10.0098V10.3936H8.88184V12.3936Z" fill="#FFC400" mask="url(#path-6-outside-1_14_14)"/>
<defs>
<clipPath id="clip0_14_14">
<rect width="12.1779" height="11.598" fill="white" transform="translate(14.6541 15.7339)"/>
</clipPath>
</defs>
</svg>
