<svg width="200" height="300" viewBox="0 0 200 300" fill="none" xmlns="http://www.w3.org/2000/svg">
<rect x="2" y="2" width="196" height="296" rx="18" stroke="#D0D0D0" stroke-width="4"/>
<path d="M152.734 189.418H60.4492C56.9527 189.418 53.5994 188.029 51.127 185.557C48.6546 183.084 47.2656 179.731 47.2656 176.234" stroke="#D0D0D0" stroke-width="8" stroke-linecap="round" stroke-linejoin="round"/>
<path d="M100 66.3711H64.8438C60.1817 66.3711 55.7107 68.2231 52.4141 71.5196C49.1176 74.8162 47.2656 79.2872 47.2656 83.9492V176.234C47.2656 172.738 48.6546 169.385 51.127 166.912C53.5994 164.44 56.9527 163.051 60.4492 163.051H148.34C149.505 163.051 150.623 162.588 151.447 161.763C152.271 160.94 152.734 159.822 152.734 158.656V70.7656C152.734 69.6001 152.271 68.4823 151.447 67.6582C150.623 66.8341 149.505 66.3711 148.34 66.3711H135.156" stroke="#D0D0D0" stroke-width="8" stroke-linecap="round" stroke-linejoin="round"/>
<path d="M143.945 189.418V163.051" stroke="#D0D0D0" stroke-width="8" stroke-linecap="round" stroke-linejoin="round"/>
<path d="M135.156 127.895L117.578 110.316L100 127.895V66.3711C100 64.0401 100.926 61.8045 102.574 60.1563C104.222 58.508 106.458 57.582 108.789 57.582H126.367C128.698 57.582 130.934 58.508 132.582 60.1563C134.23 61.8045 135.156 64.0401 135.156 66.3711V127.895Z" stroke="#D0D0D0" stroke-width="8" stroke-linecap="round" stroke-linejoin="round"/>
<path d="M50.1836 244.5H46.6289L37.9336 231.922H37.7832V244.5H33.6816V224.703H37.291L45.918 237.268H46.0957V224.703H50.1836V244.5ZM71.6621 234.602C71.6621 236.698 71.2611 238.516 70.459 240.057C69.666 241.588 68.5677 242.759 67.1641 243.57C65.7695 244.372 64.1882 244.773 62.4199 244.773C60.6517 244.773 59.0658 244.372 57.6621 243.57C56.2676 242.759 55.1693 241.583 54.3672 240.043C53.5742 238.503 53.1777 236.689 53.1777 234.602C53.1777 232.487 53.5742 230.664 54.3672 229.133C55.1693 227.602 56.2676 226.435 57.6621 225.633C59.0658 224.831 60.6517 224.43 62.4199 224.43C64.1882 224.43 65.7695 224.831 67.1641 225.633C68.5677 226.435 69.666 227.602 70.459 229.133C71.2611 230.664 71.6621 232.487 71.6621 234.602ZM67.5059 234.602C67.5059 233.207 67.2962 232.022 66.877 231.047C66.4668 230.072 65.8789 229.333 65.1133 228.832C64.3568 228.322 63.459 228.066 62.4199 228.066C61.39 228.066 60.4922 228.322 59.7266 228.832C58.9701 229.333 58.3822 230.072 57.9629 231.047C57.5436 232.022 57.334 233.207 57.334 234.602C57.334 235.996 57.5436 237.181 57.9629 238.156C58.3822 239.132 58.9701 239.874 59.7266 240.385C60.4922 240.886 61.39 241.137 62.4199 241.137C63.459 241.137 64.3568 240.886 65.1133 240.385C65.8789 239.874 66.4668 239.132 66.877 238.156C67.2962 237.181 67.5059 235.996 67.5059 234.602ZM85.2246 244.5H81.123V224.703H85.2246V244.5ZM93.6465 224.703L99.1562 238.115H99.3887L104.885 224.703H109.957V244.5H105.965V231.525H105.801L100.633 244.404H97.8848L92.7305 231.498H92.5664V244.5H88.5879V224.703H93.6465ZM112.199 244.5L119.035 224.703H124.312L131.162 244.5H126.746L121.756 229.174H121.592L116.588 244.5H112.199ZM126.938 236.721V239.934H116.369V236.721H126.938ZM145.6 231.088C145.426 230.459 145.144 229.921 144.752 229.475C144.36 229.019 143.882 228.673 143.316 228.436C142.76 228.189 142.118 228.066 141.389 228.066C140.368 228.066 139.47 228.322 138.695 228.832C137.93 229.342 137.328 230.09 136.891 231.074C136.462 232.049 136.248 233.221 136.248 234.588C136.248 235.964 136.458 237.145 136.877 238.129C137.305 239.104 137.907 239.852 138.682 240.371C139.465 240.882 140.382 241.137 141.43 241.137C142.378 241.137 143.193 240.964 143.877 240.617C144.57 240.271 145.094 239.783 145.449 239.154C145.814 238.516 145.996 237.773 145.996 236.926L146.844 237.049H141.703V233.918H149.961V236.406C149.961 238.111 149.596 239.596 148.867 240.863C148.138 242.121 147.126 243.087 145.832 243.762C144.547 244.436 143.075 244.773 141.416 244.773C139.575 244.773 137.948 244.363 136.535 243.543C135.132 242.714 134.038 241.533 133.254 240.002C132.479 238.471 132.092 236.675 132.092 234.615C132.092 232.528 132.493 230.719 133.295 229.188C134.106 227.647 135.209 226.471 136.604 225.66C137.998 224.84 139.57 224.43 141.32 224.43C142.797 224.43 144.146 224.712 145.367 225.277C146.589 225.842 147.582 226.626 148.348 227.629C149.122 228.632 149.601 229.785 149.783 231.088H145.6ZM152.982 224.703H166.271V228.094H157.084V232.906H165.574V236.283H157.084V241.109H166.299V244.5H152.982V224.703Z" fill="#C6C6C6"/>
</svg>
